<svg width="14" height="14" viewBox="0 0 14 14" fill="none" xmlns="http://www.w3.org/2000/svg">
<g clip-path="url(#clip0_1_51)">
<path d="M10.2433 12.25C10.1501 12.2504 10.058 12.2284 9.97501 12.1858L7.00001 10.6283L4.02501 12.1858C3.92841 12.2366 3.81949 12.2593 3.71064 12.2513C3.60179 12.2433 3.49738 12.2049 3.40926 12.1405C3.32115 12.076 3.25288 11.9882 3.21221 11.8869C3.17153 11.7856 3.16009 11.675 3.17918 11.5675L3.76251 8.28334L1.35918 5.95001C1.2842 5.87518 1.23101 5.78135 1.20531 5.67858C1.17962 5.57581 1.1824 5.46798 1.21335 5.36667C1.24716 5.263 1.30935 5.17088 1.39287 5.10077C1.47639 5.03065 1.57789 4.98535 1.68585 4.97001L5.01085 4.48584L6.47501 1.49334C6.52278 1.39472 6.59736 1.31154 6.69021 1.25334C6.78306 1.19514 6.89043 1.16428 7.00001 1.16428C7.1096 1.16428 7.21696 1.19514 7.30982 1.25334C7.40267 1.31154 7.47725 1.39472 7.52501 1.49334L9.00668 4.48001L12.3317 4.96417C12.4396 4.97952 12.5411 5.02482 12.6247 5.09493C12.7082 5.16505 12.7704 5.25717 12.8042 5.36084C12.8351 5.46215 12.8379 5.56998 12.8122 5.67274C12.7865 5.77551 12.7333 5.86935 12.6583 5.94417L10.255 8.27751L10.8383 11.5617C10.8592 11.671 10.8483 11.7841 10.8069 11.8874C10.7656 11.9908 10.6955 12.0802 10.605 12.145C10.4994 12.219 10.3722 12.256 10.2433 12.25Z" fill="#5D4F73"/>
</g>
<defs>
<clipPath id="clip0_1_51">
<rect width="14" height="14" fill="white"/>
</clipPath>
</defs>
</svg>
